# xmcd
# Copyright (C) 1995-1998 Ti Kan
#
# Track frame offsets:
#       150
#       16359
#       35197
#       49936
#       75135
#       93938
#       112415
#       127878
#       146778
#       150176
#       166961
#       188099
#       203951
#       223034
#       253944
#
# Disc length: 3784 seconds
#
# Revision: 0
# Processed by: cddbd v1.5.2PL0 Copyright (c) Steve Scherf et al.
# Submitted via: CD-Import v1.0
#
DISCID=cf0ec60f
DTITLE=Kamini - Extraterrien
DYEAR=09
DGENRE=
TTITLE0=Les Raps
TTITLE1=Parce Qu'on Est Cons
TTITLE2=La Bagarre
TTITLE3=En Ce Moment-Même
TTITLE4=Ya L'aziz
TTITLE5=Ca C'est Showbizz
TTITLE6=Faut Que Ça Fuck
TTITLE7=La Maladie Des Hommes
TTITLE8=Interlude
TTITLE9=Les Gens
TTITLE10=Night Club System
TTITLE11=Ovni
TTITLE12=Ce Que J'aurais Aimé Être
TTITLE13=Son De L'campagne Dans Ta Gueule
TTITLE14=Data Track
EXTD=
EXTT0=
EXTT1=
EXTT2=
EXTT3=
EXTT4=
EXTT5=
EXTT6=
EXTT7=
EXTT8=
EXTT9=
EXTT10=
EXTT11=
EXTT12=
EXTT13=
EXTT14=
PLAYORDER=
